<svg aria-hidden="true" style="position: absolute; width: 0; height: 0; overflow: hidden;" version="1.1" xmlns="http://www.w3.org/2000/svg" xmlns:xlink="http://www.w3.org/1999/xlink">
<defs>
<symbol id="icon-twitter" viewBox="0 0 26 28">
<path d="M25.312 6.375c-0.688 1-1.547 1.891-2.531 2.609 0.016 0.219 0.016 0.438 0.016 0.656 0 6.672-5.078 14.359-14.359 14.359-2.859 0-5.516-0.828-7.75-2.266 0.406 0.047 0.797 0.063 1.219 0.063 2.359 0 4.531-0.797 6.266-2.156-2.219-0.047-4.078-1.5-4.719-3.5 0.313 0.047 0.625 0.078 0.953 0.078 0.453 0 0.906-0.063 1.328-0.172-2.312-0.469-4.047-2.5-4.047-4.953v-0.063c0.672 0.375 1.453 0.609 2.281 0.641-1.359-0.906-2.25-2.453-2.25-4.203 0-0.938 0.25-1.797 0.688-2.547 2.484 3.062 6.219 5.063 10.406 5.281-0.078-0.375-0.125-0.766-0.125-1.156 0-2.781 2.25-5.047 5.047-5.047 1.453 0 2.766 0.609 3.687 1.594 1.141-0.219 2.234-0.641 3.203-1.219-0.375 1.172-1.172 2.156-2.219 2.781 1.016-0.109 2-0.391 2.906-0.781z"></path>
</symbol>
<symbol id="icon-facebook" viewBox="0 0 16 28">
<path d="M14.984 0.187v4.125h-2.453c-1.922 0-2.281 0.922-2.281 2.25v2.953h4.578l-0.609 4.625h-3.969v11.859h-4.781v-11.859h-3.984v-4.625h3.984v-3.406c0-3.953 2.422-6.109 5.953-6.109 1.687 0 3.141 0.125 3.563 0.187z"></path>
</symbol>
<symbol id="icon-instagram" viewBox="0 0 24 28">
<path d="M16 14c0-2.203-1.797-4-4-4s-4 1.797-4 4 1.797 4 4 4 4-1.797 4-4zM18.156 14c0 3.406-2.75 6.156-6.156 6.156s-6.156-2.75-6.156-6.156 2.75-6.156 6.156-6.156 6.156 2.75 6.156 6.156zM19.844 7.594c0 0.797-0.641 1.437-1.437 1.437s-1.437-0.641-1.437-1.437 0.641-1.437 1.437-1.437 1.437 0.641 1.437 1.437zM12 4.156c-1.75 0-5.5-0.141-7.078 0.484-0.547 0.219-0.953 0.484-1.375 0.906s-0.688 0.828-0.906 1.375c-0.625 1.578-0.484 5.328-0.484 7.078s-0.141 5.5 0.484 7.078c0.219 0.547 0.484 0.953 0.906 1.375s0.828 0.688 1.375 0.906c1.578 0.625 5.328 0.484 7.078 0.484s5.5 0.141 7.078-0.484c0.547-0.219 0.953-0.484 1.375-0.906s0.688-0.828 0.906-1.375c0.625-1.578 0.484-5.328 0.484-7.078s0.141-5.5-0.484-7.078c-0.219-0.547-0.484-0.953-0.906-1.375s-0.828-0.688-1.375-0.906c-1.578-0.625-5.328-0.484-7.078-0.484zM24 14c0 1.656 0.016 3.297-0.078 4.953-0.094 1.922-0.531 3.625-1.937 5.031s-3.109 1.844-5.031 1.937c-1.656 0.094-3.297 0.078-4.953 0.078s-3.297 0.016-4.953-0.078c-1.922-0.094-3.625-0.531-5.031-1.937s-1.844-3.109-1.937-5.031c-0.094-1.656-0.078-3.297-0.078-4.953s-0.016-3.297 0.078-4.953c0.094-1.922 0.531-3.625 1.937-5.031s3.109-1.844 5.031-1.937c1.656-0.094 3.297-0.078 4.953-0.078s3.297-0.016 4.953 0.078c1.922 0.094 3.625 0.531 5.031 1.937s1.844 3.109 1.937 5.031c0.094 1.656 0.078 3.297 0.078 4.953z"></path>
</symbol>
<symbol id="icon-vimeo" viewBox="0 0 28 28">
<path d="M26.703 8.094c-0.109 2.469-1.844 5.859-5.187 10.172-3.469 4.484-6.375 6.734-8.781 6.734-1.484 0-2.734-1.375-3.75-4.109-0.688-2.5-1.375-5.016-2.063-7.531-0.75-2.734-1.578-4.094-2.453-4.094-0.187 0-0.844 0.391-1.984 1.188l-1.203-1.531c1.25-1.109 2.484-2.234 3.719-3.313 1.656-1.469 2.922-2.203 3.766-2.281 1.984-0.187 3.187 1.156 3.656 4.047 0.484 3.125 0.844 5.078 1.031 5.828 0.578 2.594 1.188 3.891 1.875 3.891 0.531 0 1.328-0.828 2.406-2.516 1.062-1.687 1.625-2.969 1.703-3.844 0.141-1.453-0.422-2.172-1.703-2.172-0.609 0-1.234 0.141-1.891 0.406 1.25-4.094 3.641-6.078 7.172-5.969 2.609 0.078 3.844 1.781 3.687 5.094z"></path>
</symbol>
<symbol id="icon-sedex" viewBox="0 0 32 32">
<path d="M24.91 16.659c-0.039-0.208-0.091-0.391-0.159-0.566l0.007 0.021c-0.14-0.368-0.341-0.682-0.595-0.947l0.001 0.001c-0.262-0.272-0.576-0.492-0.925-0.646l-0.019-0.007c-0.353-0.15-0.763-0.237-1.194-0.237-0.020 0-0.039 0-0.059 0.001l0.003-0c-0.016-0-0.035-0-0.055-0-0.436 0-0.852 0.087-1.23 0.245l0.021-0.008c-0.375 0.159-0.694 0.38-0.959 0.653l-0.001 0.001c-0.256 0.268-0.461 0.587-0.597 0.941l-0.007 0.019c-0.135 0.34-0.213 0.734-0.213 1.146 0 0.002 0 0.004 0 0.006v-0c0 0.003-0 0.007-0 0.011 0 0.402 0.078 0.787 0.221 1.138l-0.007-0.020c0.288 0.724 0.846 1.289 1.546 1.58l0.019 0.007c0.357 0.149 0.772 0.236 1.207 0.236 0.014 0 0.027-0 0.041-0l-0.002 0c0.021 0 0.045 0.001 0.069 0.001 0.584 0 1.131-0.159 1.601-0.435l-0.015 0.008c0.442-0.256 0.793-0.626 1.021-1.069l0.007-0.015 0.070-0.146-1.319-0.367-0.055 0.073c-0.313 0.407-0.8 0.667-1.348 0.667-0.727 0-1.348-0.458-1.589-1.101l-0.004-0.012h4.512l0.025-0.107c0.016-0.067 0.026-0.145 0.029-0.226l0-0.002c0-0.087 0-0.178 0-0.268 0-0.001 0-0.001 0-0.002 0-0.2-0.019-0.396-0.054-0.586l0.003 0.020zM21.981 15.552c0.663 0.002 1.237 0.382 1.517 0.936l0.005 0.010h-3.044c0.285-0.564 0.859-0.944 1.522-0.946h0z"></path>
<path d="M12.027 16.659c-0.039-0.208-0.091-0.391-0.159-0.566l0.007 0.021c-0.14-0.368-0.341-0.682-0.595-0.947l0.001 0.001c-0.262-0.272-0.576-0.492-0.925-0.646l-0.019-0.007c-0.356-0.153-0.77-0.241-1.204-0.241-0.017 0-0.034 0-0.050 0l0.002-0c-0.013-0-0.028-0-0.043-0-0.44 0-0.859 0.089-1.24 0.249l0.021-0.008c-0.375 0.159-0.694 0.38-0.959 0.653l-0.001 0.001c-0.257 0.268-0.462 0.587-0.598 0.941l-0.007 0.019c-0.132 0.337-0.208 0.728-0.208 1.136 0 0.005 0 0.011 0 0.016v-0.001c0 0.002 0 0.004 0 0.006 0 0.404 0.078 0.79 0.221 1.143l-0.007-0.021c0.289 0.723 0.847 1.288 1.546 1.58l0.019 0.007c0.357 0.149 0.772 0.236 1.207 0.236 0.014 0 0.027-0 0.041-0l-0.002 0c0.021 0 0.045 0.001 0.070 0.001 0.584 0 1.132-0.159 1.601-0.435l-0.015 0.008c0.439-0.258 0.787-0.629 1.012-1.073l0.007-0.015 0.071-0.146-1.319-0.363-0.055 0.073c-0.313 0.407-0.801 0.667-1.349 0.667-0.728 0-1.348-0.458-1.59-1.101l-0.004-0.012h4.512l0.026-0.107c0.018-0.071 0.028-0.152 0.030-0.236l0-0.001c0-0.087 0-0.178 0-0.268 0-0.002 0-0.005 0-0.008 0-0.198-0.018-0.392-0.053-0.58l0.003 0.019zM7.572 16.498c0.283-0.565 0.858-0.947 1.522-0.947s1.239 0.381 1.517 0.937l0.004 0.010z"></path>
<path d="M0.359 18.944v0-0.005s0 0 0 0z"></path>
<path d="M0.381 18.802v0 0 0z"></path>
<path d="M0.381 18.763v0z"></path>
<path d="M0.381 18.763v0zM0.355 18.939v0.005s0 0 0 0z"></path>
<path d="M3.932 15.559l-1.159-0.484c-0.609-0.247-1.183-0.482-1.183-1.083 0-0.56 0.506-0.923 1.287-0.923 0.001 0 0.003 0 0.005 0 0.226 0 0.445 0.030 0.653 0.086l-0.017-0.004 0.017 0.010h0.010c0.019 0.006 0.037 0.013 0.054 0.020h0.007l0.016 0.005 0.099 0.045c0.032 0.015 0.063 0.031 0.089 0.046l0.051 0.029 0.033 0.021 0.049 0.031 0.034 0.025c0.055 0.039 0.104 0.078 0.149 0.119l-0.001-0.001c0.069 0.062 0.132 0.129 0.189 0.2l0.003 0.003 0.062 0.074 0.085-0.029 1.232-0.33-0.075-0.148c-0.234-0.447-0.584-0.807-1.010-1.046l-0.013-0.007c-0.339-0.196-0.737-0.33-1.162-0.376l-0.014-0.001c-0.163-0.032-0.351-0.051-0.543-0.052h-0.001c-0.754 0-1.444 0.224-1.945 0.631-0.485 0.382-0.795 0.97-0.796 1.629v0c0 0.982 0.573 1.697 1.751 2.182l1.154 0.491c0.704 0.295 1.213 0.51 1.213 1.173s-0.563 1.051-1.469 1.051c-0.070 0-0.139 0-0.2 0-0.18-0.017-0.346-0.058-0.501-0.119l0.012 0.004-0.022-0.009-0.020-0.010-0.030-0.019-0.019-0.009h-0.007l-0.026-0.013c-0.029-0.014-0.059-0.029-0.092-0.048l-0.017-0.010-0.021-0.012h-0.007l-0.036-0.030-0.048-0.031-0.030-0.021c-0.052-0.037-0.1-0.078-0.148-0.119-0.069-0.065-0.133-0.135-0.19-0.209l-0.003-0.004-0.060-0.074-0.087 0.029-1.234 0.334 0.074 0.148c0.056 0.113 0.113 0.209 0.176 0.299l-0.005-0.007 0.019 0.033 0.031 0.036c0.218 0.284 0.484 0.52 0.788 0.697l0.013 0.007c0.246 0.147 0.531 0.261 0.834 0.328l0.019 0.004 0.015 0.006h0.014c0.228 0.060 0.49 0.094 0.759 0.094 0.011 0 0.022-0 0.033-0l-0.002 0c0.86 0 1.6-0.239 2.133-0.69 0.498-0.408 0.813-1.023 0.813-1.712 0-0 0-0 0-0.001v0c0-1.341-0.901-1.894-1.782-2.259zM0.357 18.945v-0.005s0 0 0 0zM0.381 18.764v0z"></path>
<path d="M29.709 20.255h-1.525l-1.271-1.923-1.28 1.923h-1.533l2.055-2.936-2.12-3.017h1.532l4.142 5.953z"></path>
<path d="M17.015 11.741v2.992c-0.448-0.308-1.003-0.492-1.6-0.492-0.003 0-0.007 0-0.010 0h0.001c-1.619 0-2.937 1.349-2.937 3.009s1.318 3.009 2.937 3.009c0.003 0 0.006 0 0.010 0 0.597 0 1.152-0.184 1.61-0.498l-0.010 0.006v0.467h1.462v-8.493zM15.406 15.595c0.014-0 0.030-0.001 0.046-0.001 0.914 0 1.655 0.741 1.655 1.655s-0.741 1.655-1.655 1.655c-0.914 0-1.655-0.741-1.655-1.655v-0c-0-0.006-0-0.013-0-0.020 0-0.894 0.718-1.62 1.608-1.635l0.001-0z"></path>
<path d="M29.298 11.828c-0 0-0 0-0.001 0-1.49 0-2.697 1.208-2.697 2.697 0 0.616 0.206 1.183 0.554 1.637l-0.005-0.006 1.285-1.931h1.434l-1.866 2.666c0.375 0.21 0.823 0.334 1.3 0.334 1.49 0 2.698-1.208 2.698-2.698s-1.208-2.698-2.698-2.698c-0.001 0-0.003 0-0.004 0h0z"></path>
</symbol>
<symbol id="icon-albert" viewBox="0 0 32 32">
<path d="M11.898 14.168l-1.46 3.664h0.994l0.273-0.709h1.43l0.273 0.709h1.053l-1.46-3.664h-1.105zM11.991 16.384l0.419-1.082h0.023l0.419 1.082h-0.861z"></path>
<path d="M15.73 14.168h-0.989v3.664h2.803v-0.814h-1.814z"></path>
<path d="M20.469 15.93c0.39-0.064 0.651-0.343 0.651-0.75 0-0.616-0.425-1.012-1.367-1.012h-1.785v3.664h1.908c0.855 0 1.355-0.372 1.355-1.006 0-0.523-0.332-0.808-0.762-0.896zM18.928 14.953h0.698c0.337 0 0.471 0.151 0.471 0.343 0 0.174-0.134 0.326-0.471 0.326h-0.698v-0.669zM19.719 17.041h-0.791v-0.68h0.785c0.349 0 0.5 0.146 0.5 0.343s-0.151 0.337-0.494 0.337z"></path>
<path d="M22.62 16.384h1.436v-0.803h-1.436v-0.599h1.861v-0.814h-2.832v3.664h2.884v-0.814h-1.913z"></path>
<path d="M27.464 16.273c0.448-0.058 0.779-0.407 0.779-0.942 0-0.715-0.471-1.163-1.419-1.163h-1.849v3.664h0.971v-1.215h0.657c0.332 0 0.512 0.093 0.541 0.512 0.029 0.378 0.076 0.605 0.151 0.704h1c-0.122-0.134-0.139-0.296-0.192-0.843-0.041-0.424-0.262-0.639-0.64-0.715zM26.65 15.855h-0.704v-0.896h0.704c0.419 0 0.628 0.157 0.628 0.454 0 0.337-0.209 0.442-0.628 0.442z"></path>
<path d="M28.488 14.168v0.814h1.256v2.85h0.983v-2.85h1.274v-0.814z"></path>
<path d="M4.388 14.168h5.327v3.664h-5.327v-3.664z"></path>
<path d="M1.832 14.168c-1.012 0-1.832 0.82-1.832 1.832s0.82 1.832 1.832 1.832c1.012 0 1.832-0.82 1.832-1.832s-0.82-1.832-1.832-1.832z"></path>
</symbol>
<symbol id="icon-mark" viewBox="0 0 32 32">
<path d="M6.141 8.873l2.733-2.733 7.127 7.126 7.125-7.126 2.734 2.733-7.102 7.127 7.102 7.126-2.734 2.734-7.125-7.102-7.127 7.102-2.733-2.734 7.126-7.125z"></path>
</symbol>
<symbol id="icon-search" viewBox="0 0 24 24">
<path d="M9.516 14.016q1.875 0 3.188-1.313t1.313-3.188-1.313-3.188-3.188-1.313-3.188 1.313-1.313 3.188 1.313 3.188 3.188 1.313zM15.516 14.016l4.969 4.969-1.5 1.5-4.969-4.969v-0.797l-0.281-0.281q-1.781 1.547-4.219 1.547-2.719 0-4.617-1.875t-1.898-4.594 1.898-4.617 4.617-1.898 4.594 1.898 1.875 4.617q0 0.984-0.469 2.227t-1.078 1.992l0.281 0.281h0.797z"></path>
</symbol>
</defs>
</svg>
